<svg xmlns="http://www.w3.org/2000/svg" xmlns:xlink="http://www.w3.org/1999/xlink" width="1550" height="537.62"><rect width="1550" height="537.62" rx="5" ry="5" class="a"/><svg y="0%" x="0%"><circle cx="20" cy="20" r="6" fill="#ff5f58"/><circle cx="40" cy="20" r="6" fill="#ffbd2e"/><circle cx="60" cy="20" r="6" fill="#18c132"/></svg><svg height="477.62" viewBox="0 0 151 47.762" width="1510" x="15" xmlns="http://www.w3.org/2000/svg" xmlns:xlink="http://www.w3.org/1999/xlink" y="50"><style>@keyframes l{0%{transform:translateX(0)}.16%{transform:translateX(-151px)}5.36%{transform:translateX(-302px)}8.1%{transform:translateX(-453px)}9.99%{transform:translateX(-604px)}10.38%{transform:translateX(-755px)}10.91%{transform:translateX(-906px)}11.76%{transform:translateX(-1057px)}12.35%{transform:translateX(-1208px)}12.61%{transform:translateX(-1359px)}13.1%{transform:translateX(-1510px)}15.92%{transform:translateX(-1661px)}16.4%{transform:translateX(-1812px)}17.71%{transform:translateX(-1963px)}18.13%{transform:translateX(-2114px)}18.43%{transform:translateX(-2265px)}18.94%{transform:translateX(-2416px)}19.42%{transform:translateX(-2567px)}19.86%{transform:translateX(-2718px)}22.28%{transform:translateX(-2869px)}23.44%{transform:translateX(-3020px)}23.87%{transform:translateX(-3171px)}27.79%{transform:translateX(-3322px)}28.38%{transform:translateX(-3473px)}28.62%{transform:translateX(-3624px)}29.34%{transform:translateX(-3775px)}29.62%{transform:translateX(-3926px)}30.91%{transform:translateX(-4077px)}31.61%{transform:translateX(-4228px)}31.91%{transform:translateX(-4379px)}33.23%{transform:translateX(-4530px)}33.39%{transform:translateX(-4681px)}33.65%{transform:translateX(-4832px)}36.2%{transform:translateX(-4983px)}37.07%{transform:translateX(-5134px)}37.41%{transform:translateX(-5285px)}37.63%{transform:translateX(-5436px)}38.3%{transform:translateX(-5587px)}38.64%{transform:translateX(-5738px)}40.18%{transform:translateX(-5889px)}40.48%{transform:translateX(-6040px)}41.57%{transform:translateX(-6191px)}41.61%{transform:translateX(-6342px)}49.06%{transform:translateX(-6493px)}52.03%{transform:translateX(-6644px)}52.05%{transform:translateX(-6795px)}52.2%{transform:translateX(-6946px)}52.4%{transform:translateX(-7097px)}52.57%{transform:translateX(-7248px)}52.74%{transform:translateX(-7399px)}52.75%{transform:translateX(-7852px)}52.77%{transform:translateX(-8003px)}52.8%{transform:translateX(-8154px)}60.81%{transform:translateX(-8305px)}61.06%{transform:translateX(-8456px)}61.58%{transform:translateX(-8607px)}63.48%{transform:translateX(-8758px)}63.76%{transform:translateX(-8909px)}65.42%{transform:translateX(-9060px)}66.2%{transform:translateX(-9211px)}66.88%{transform:translateX(-9362px)}67.16%{transform:translateX(-9513px)}67.88%{transform:translateX(-9664px)}69.29%{transform:translateX(-9815px)}69.66%{transform:translateX(-9966px)}69.67%{transform:translateX(-10117px)}69.68%{transform:translateX(-10268px)}73.24%{transform:translateX(-10419px)}74.31%{transform:translateX(-10570px)}74.57%{transform:translateX(-10721px)}76.07%{transform:translateX(-10872px)}76.75%{transform:translateX(-11023px)}78.04%{transform:translateX(-11174px)}78.41%{transform:translateX(-11476px)}78.42%{transform:translateX(-11778px)}82.29%{transform:translateX(-11929px)}82.59%{transform:translateX(-12080px)}83.01%{transform:translateX(-12231px)}83.4%{transform:translateX(-12684px)}87.63%{transform:translateX(-12835px)}88.16%{transform:translateX(-12986px)}89.01%{transform:translateX(-13590px)}93.87%{transform:translateX(-13741px)}94.15%{transform:translateX(-13892px)}94.42%{transform:translateX(-14043px)}94.96%{transform:translateX(-14345px)}94.97%{transform:translateX(-14496px)}94.99%{transform:translateX(-14647px)}to{transform:translateX(-14798px)}}.a{fill:#282d35}.f{fill:#b9c0cb}.g{fill:#6f7783}.h{fill:#71bef2}.i{fill:#d290e4}</style><g font-size="1.67" font-family="Monaco,Consolas,Menlo,'Bitstream Vera Sans Mono','Powerline Symbols',monospace"><defs><symbol id="1"><text y="1.67" class="f">bardelorean@bardelorean:~/Documents/projects/project_1$</text></symbol><symbol id="2"><text y="1.67" class="f">bardelorean@bardelorean:~/Documents/projects/project_1$</text><text x="56.112" y="1.67" class="f">sudo</text></symbol><symbol id="3"><text y="1.67" class="f">bardelorean@bardelorean:~/Documents/projects/project_1$</text><text x="56.112" y="1.67" class="f">sudo</text><text x="61.122" y="1.67" class="f">npm</text></symbol><symbol id="4"><text y="1.67" class="f">bardelorean@bardelorean:~/Documents/projects/project_1$</text><text x="56.112" y="1.67" class="f">sudo</text><text x="61.122" y="1.67" class="f">npm</text><text x="65.13" y="1.67" class="f">install</text></symbol><symbol id="5"><text y="1.67" class="f">bardelorean@bardelorean:~/Documents/projects/project_1$</text><text x="56.112" y="1.67" class="f">sudo</text><text x="61.122" y="1.67" class="f">npm</text><text x="65.13" y="1.67" class="f">install</text><text x="73.146" y="1.67" class="f">-g</text></symbol><symbol id="6"><text y="1.67" class="f">bardelorean@bardelorean:~/Documents/projects/project_1$</text><text x="56.112" y="1.67" class="f">sudo</text><text x="61.122" y="1.67" class="f">npm</text><text x="65.13" y="1.67" class="f">install</text><text x="73.146" y="1.67" class="f">-g</text><text x="76.152" y="1.67" class="f">brain_games_arbyman</text></symbol><symbol id="7"><text y="1.67" class="f">[sudo]</text><text x="7.014" y="1.67" class="f">пароль</text><text x="14.028" y="1.67" class="f">для</text><text x="18.036" y="1.67" class="f">bardelorean:</text></symbol><symbol id="8"><text y="1.67" class="f">[</text><text x="1.002" y="1.67" class="g">..................</text><text x="19.038" y="1.67" class="f">]</text><text x="21.042" y="1.67" class="f">/</text><text x="23.046" y="1.67" class="f">rollbackFailedOptional:</text>0<text x="47.094" y="1.67" class="h">verb</text><text x="52.104" y="1.67" class="i">npm-session</text><text x="64.128" y="1.67" class="f">13e1422639b32dc7</text></symbol><symbol id="9"><text y="1.67" class="f">/usr/local/bin/brain-games</text><text x="27.054" y="1.67" class="f">-&gt;</text><text x="30.06" y="1.67" class="f">/usr/local/lib/node_modules/brain_games_arbyman/dist/bin/brain-games.js</text></symbol><symbol id="10"><text y="1.67" class="f">/usr/local/bin/brain-even</text><text x="26.052" y="1.67" class="f">-&gt;</text><text x="29.058" y="1.67" class="f">/usr/local/lib/node_modules/brain_games_arbyman/dist/bin/brain-even.js</text></symbol><symbol id="11"><text y="1.67" class="f">+</text><text x="2.004" y="1.67" class="f">brain_games_arbyman@1.0.6</text></symbol><symbol id="12"><text y="1.67" class="f">updated</text><text x="8.016" y="1.67" class="f">1</text><text x="10.02" y="1.67" class="f">package</text><text x="18.036" y="1.67" class="f">in</text><text x="21.042" y="1.67" class="f">0.23s</text></symbol><symbol id="13"><text y="1.67" class="f">bardelorean@bardelorean:~/Documents/projects/project_1$</text><text x="56.112" y="1.67" class="f">brain-even</text></symbol><symbol id="14"><text y="1.67" class="f">Welcome</text><text x="8.016" y="1.67" class="f">to</text><text x="11.022" y="1.67" class="f">the</text><text x="15.03" y="1.67" class="f">Brain</text><text x="21.042" y="1.67" class="f">Games!</text></symbol><symbol id="15"><text y="1.67" class="f">Answer</text><text x="7.014" y="1.67" class="f">&quot;yes&quot;</text><text x="13.026" y="1.67" class="f">if</text><text x="16.032" y="1.67" class="f">number</text><text x="23.046" y="1.67" class="f">even</text><text x="28.056" y="1.67" class="f">otherwise</text><text x="38.076" y="1.67" class="f">answer</text><text x="45.09" y="1.67" class="f">&quot;no&quot;.</text></symbol><symbol id="16"><text y="1.67" class="f">May</text><text x="4.008" y="1.67" class="f">I</text><text x="6.012" y="1.67" class="f">have</text><text x="11.022" y="1.67" class="f">your</text><text x="16.032" y="1.67" class="f">name?</text><text x="22.044" y="1.67" class="f">Sergey</text></symbol><symbol id="17"><text y="1.67" class="f">Hello,</text><text x="7.014" y="1.67" class="f">Sergey!</text></symbol><symbol id="18"><text y="1.67" class="f">Question:</text><text x="10.02" y="1.67" class="f">64</text></symbol><symbol id="19"><text y="1.67" class="f">Your</text><text x="5.01" y="1.67" class="f">answer:</text></symbol><symbol id="20"><text y="1.67" class="f">Your</text><text x="5.01" y="1.67" class="f">answer:</text><text x="13.026" y="1.67" class="f">y</text></symbol><symbol id="21"><text y="1.67" class="f">Your</text><text x="5.01" y="1.67" class="f">answer:</text><text x="13.026" y="1.67" class="f">ye</text></symbol><symbol id="22"><text y="1.67" class="f">Your</text><text x="5.01" y="1.67" class="f">answer:</text><text x="13.026" y="1.67" class="f">yes</text></symbol><symbol id="23"><text y="1.67" class="f">Correct!</text></symbol><symbol id="24"><text y="1.67" class="f">Question:</text><text x="10.02" y="1.67" class="f">51</text></symbol><symbol id="25"><text y="1.67" class="f">Your</text><text x="5.01" y="1.67" class="f">answer:</text><text x="13.026" y="1.67" class="f">no</text></symbol><symbol id="26"><text y="1.67" class="f">Question:</text><text x="10.02" y="1.67" class="f">8</text></symbol><symbol id="27"><text y="1.67" class="f">Congratulations,</text><text x="17.034" y="1.67" class="f">Sergey!</text></symbol><symbol id="a"><path fill="transparent" d="M0 0h151v22H0z"/></symbol><symbol id="b"><path fill="#6f7683" d="M0 0h1.102v2.171H0z"/></symbol></defs><path class="a" d="M0 0h151v47.762H0z"/><g style="animation-duration:30.015432s;animation-iteration-count:infinite;animation-name:l;animation-timing-function:steps(1,end)"><svg width="14949"><svg><use xlink:href="#a"/><use xlink:href="#b" x="-.004"/></svg><svg x="151"><use xlink:href="#a"/><use xlink:href="#b" x="55.996"/><use xlink:href="#1"/></svg><svg x="302"><use xlink:href="#a"/><use xlink:href="#b" x="56.996"/><text y="1.67" class="f">bardelorean@bardelorean:~/Documents/projects/project_1$</text><text x="56.112" y="1.67" class="f">s</text></svg><svg x="453"><use xlink:href="#a"/><use xlink:href="#b" x="57.996"/><text y="1.67" class="f">bardelorean@bardelorean:~/Documents/projects/project_1$</text><text x="56.112" y="1.67" class="f">su</text></svg><svg x="604"><use xlink:href="#a"/><use xlink:href="#b" x="58.996"/><text y="1.67" class="f">bardelorean@bardelorean:~/Documents/projects/project_1$</text><text x="56.112" y="1.67" class="f">sud</text></svg><svg x="755"><use xlink:href="#a"/><use xlink:href="#b" x="59.996"/><use xlink:href="#2"/></svg><svg x="906"><use xlink:href="#a"/><use xlink:href="#b" x="60.996"/><use xlink:href="#2"/></svg><svg x="1057"><use xlink:href="#a"/><use xlink:href="#b" x="61.996"/><text y="1.67" class="f">bardelorean@bardelorean:~/Documents/projects/project_1$</text><text x="56.112" y="1.67" class="f">sudo</text><text x="61.122" y="1.67" class="f">n</text></svg><svg x="1208"><use xlink:href="#a"/><use xlink:href="#b" x="62.996"/><text y="1.67" class="f">bardelorean@bardelorean:~/Documents/projects/project_1$</text><text x="56.112" y="1.67" class="f">sudo</text><text x="61.122" y="1.67" class="f">np</text></svg><svg x="1359"><use xlink:href="#a"/><use xlink:href="#b" x="63.996"/><use xlink:href="#3"/></svg><svg x="1510"><use xlink:href="#a"/><use xlink:href="#b" x="64.996"/><use xlink:href="#3"/></svg><svg x="1661"><use xlink:href="#a"/><use xlink:href="#b" x="65.996"/><text y="1.67" class="f">bardelorean@bardelorean:~/Documents/projects/project_1$</text><text x="56.112" y="1.67" class="f">sudo</text><text x="61.122" y="1.67" class="f">npm</text><text x="65.13" y="1.67" class="f">i</text></svg><svg x="1812"><use xlink:href="#a"/><use xlink:href="#b" x="66.996"/><text y="1.67" class="f">bardelorean@bardelorean:~/Documents/projects/project_1$</text><text x="56.112" y="1.67" class="f">sudo</text><text x="61.122" y="1.67" class="f">npm</text><text x="65.13" y="1.67" class="f">in</text></svg><svg x="1963"><use xlink:href="#a"/><use xlink:href="#b" x="67.996"/><text y="1.67" class="f">bardelorean@bardelorean:~/Documents/projects/project_1$</text><text x="56.112" y="1.67" class="f">sudo</text><text x="61.122" y="1.67" class="f">npm</text><text x="65.13" y="1.67" class="f">ins</text></svg><svg x="2114"><use xlink:href="#a"/><use xlink:href="#b" x="68.996"/><text y="1.67" class="f">bardelorean@bardelorean:~/Documents/projects/project_1$</text><text x="56.112" y="1.67" class="f">sudo</text><text x="61.122" y="1.67" class="f">npm</text><text x="65.13" y="1.67" class="f">inst</text></svg><svg x="2265"><use xlink:href="#a"/><use xlink:href="#b" x="69.996"/><text y="1.67" class="f">bardelorean@bardelorean:~/Documents/projects/project_1$</text><text x="56.112" y="1.67" class="f">sudo</text><text x="61.122" y="1.67" class="f">npm</text><text x="65.13" y="1.67" class="f">insta</text></svg><svg x="2416"><use xlink:href="#a"/><use xlink:href="#b" x="70.996"/><text y="1.67" class="f">bardelorean@bardelorean:~/Documents/projects/project_1$</text><text x="56.112" y="1.67" class="f">sudo</text><text x="61.122" y="1.67" class="f">npm</text><text x="65.13" y="1.67" class="f">instal</text></svg><svg x="2567"><use xlink:href="#a"/><use xlink:href="#b" x="71.996"/><use xlink:href="#4"/></svg><svg x="2718"><use xlink:href="#a"/><use xlink:href="#b" x="72.996"/><use xlink:href="#4"/></svg><svg x="2869"><use xlink:href="#a"/><use xlink:href="#b" x="73.996"/><text y="1.67" class="f">bardelorean@bardelorean:~/Documents/projects/project_1$</text><text x="56.112" y="1.67" class="f">sudo</text><text x="61.122" y="1.67" class="f">npm</text><text x="65.13" y="1.67" class="f">install</text><text x="73.146" y="1.67" class="f">-</text></svg><svg x="3020"><use xlink:href="#a"/><use xlink:href="#b" x="74.996"/><use xlink:href="#5"/></svg><svg x="3171"><use xlink:href="#a"/><use xlink:href="#b" x="75.996"/><use xlink:href="#5"/></svg><svg x="3322"><use xlink:href="#a"/><use xlink:href="#b" x="76.996"/><text y="1.67" class="f">bardelorean@bardelorean:~/Documents/projects/project_1$</text><text x="56.112" y="1.67" class="f">sudo</text><text x="61.122" y="1.67" class="f">npm</text><text x="65.13" y="1.67" class="f">install</text><text x="73.146" y="1.67" class="f">-g</text><text x="76.152" y="1.67" class="f">b</text></svg><svg x="3473"><use xlink:href="#a"/><use xlink:href="#b" x="77.996"/><text y="1.67" class="f">bardelorean@bardelorean:~/Documents/projects/project_1$</text><text x="56.112" y="1.67" class="f">sudo</text><text x="61.122" y="1.67" class="f">npm</text><text x="65.13" y="1.67" class="f">install</text><text x="73.146" y="1.67" class="f">-g</text><text x="76.152" y="1.67" class="f">br</text></svg><svg x="3624"><use xlink:href="#a"/><use xlink:href="#b" x="78.996"/><text y="1.67" class="f">bardelorean@bardelorean:~/Documents/projects/project_1$</text><text x="56.112" y="1.67" class="f">sudo</text><text x="61.122" y="1.67" class="f">npm</text><text x="65.13" y="1.67" class="f">install</text><text x="73.146" y="1.67" class="f">-g</text><text x="76.152" y="1.67" class="f">bra</text></svg><svg x="3775"><use xlink:href="#a"/><use xlink:href="#b" x="79.996"/><text y="1.67" class="f">bardelorean@bardelorean:~/Documents/projects/project_1$</text><text x="56.112" y="1.67" class="f">sudo</text><text x="61.122" y="1.67" class="f">npm</text><text x="65.13" y="1.67" class="f">install</text><text x="73.146" y="1.67" class="f">-g</text><text x="76.152" y="1.67" class="f">brai</text></svg><svg x="3926"><use xlink:href="#a"/><use xlink:href="#b" x="80.996"/><text y="1.67" class="f">bardelorean@bardelorean:~/Documents/projects/project_1$</text><text x="56.112" y="1.67" class="f">sudo</text><text x="61.122" y="1.67" class="f">npm</text><text x="65.13" y="1.67" class="f">install</text><text x="73.146" y="1.67" class="f">-g</text><text x="76.152" y="1.67" class="f">brain</text></svg><svg x="4077"><use xlink:href="#a"/><use xlink:href="#b" x="81.996"/><text y="1.67" class="f">bardelorean@bardelorean:~/Documents/projects/project_1$</text><text x="56.112" y="1.67" class="f">sudo</text><text x="61.122" y="1.67" class="f">npm</text><text x="65.13" y="1.67" class="f">install</text><text x="73.146" y="1.67" class="f">-g</text><text x="76.152" y="1.67" class="f">brain_</text></svg><svg x="4228"><use xlink:href="#a"/><use xlink:href="#b" x="82.996"/><text y="1.67" class="f">bardelorean@bardelorean:~/Documents/projects/project_1$</text><text x="56.112" y="1.67" class="f">sudo</text><text x="61.122" y="1.67" class="f">npm</text><text x="65.13" y="1.67" class="f">install</text><text x="73.146" y="1.67" class="f">-g</text><text x="76.152" y="1.67" class="f">brain_g</text></svg><svg x="4379"><use xlink:href="#a"/><use xlink:href="#b" x="83.996"/><text y="1.67" class="f">bardelorean@bardelorean:~/Documents/projects/project_1$</text><text x="56.112" y="1.67" class="f">sudo</text><text x="61.122" y="1.67" class="f">npm</text><text x="65.13" y="1.67" class="f">install</text><text x="73.146" y="1.67" class="f">-g</text><text x="76.152" y="1.67" class="f">brain_ga</text></svg><svg x="4530"><use xlink:href="#a"/><use xlink:href="#b" x="84.996"/><text y="1.67" class="f">bardelorean@bardelorean:~/Documents/projects/project_1$</text><text x="56.112" y="1.67" class="f">sudo</text><text x="61.122" y="1.67" class="f">npm</text><text x="65.13" y="1.67" class="f">install</text><text x="73.146" y="1.67" class="f">-g</text><text x="76.152" y="1.67" class="f">brain_gam</text></svg><svg x="4681"><use xlink:href="#a"/><use xlink:href="#b" x="85.996"/><text y="1.67" class="f">bardelorean@bardelorean:~/Documents/projects/project_1$</text><text x="56.112" y="1.67" class="f">sudo</text><text x="61.122" y="1.67" class="f">npm</text><text x="65.13" y="1.67" class="f">install</text><text x="73.146" y="1.67" class="f">-g</text><text x="76.152" y="1.67" class="f">brain_game</text></svg><svg x="4832"><use xlink:href="#a"/><use xlink:href="#b" x="86.996"/><text y="1.67" class="f">bardelorean@bardelorean:~/Documents/projects/project_1$</text><text x="56.112" y="1.67" class="f">sudo</text><text x="61.122" y="1.67" class="f">npm</text><text x="65.13" y="1.67" class="f">install</text><text x="73.146" y="1.67" class="f">-g</text><text x="76.152" y="1.67" class="f">brain_games</text></svg><svg x="4983"><use xlink:href="#a"/><use xlink:href="#b" x="87.996"/><text y="1.67" class="f">bardelorean@bardelorean:~/Documents/projects/project_1$</text><text x="56.112" y="1.67" class="f">sudo</text><text x="61.122" y="1.67" class="f">npm</text><text x="65.13" y="1.67" class="f">install</text><text x="73.146" y="1.67" class="f">-g</text><text x="76.152" y="1.67" class="f">brain_games_</text></svg><svg x="5134"><use xlink:href="#a"/><use xlink:href="#b" x="88.996"/><text y="1.67" class="f">bardelorean@bardelorean:~/Documents/projects/project_1$</text><text x="56.112" y="1.67" class="f">sudo</text><text x="61.122" y="1.67" class="f">npm</text><text x="65.13" y="1.67" class="f">install</text><text x="73.146" y="1.67" class="f">-g</text><text x="76.152" y="1.67" class="f">brain_games_a</text></svg><svg x="5285"><use xlink:href="#a"/><use xlink:href="#b" x="89.996"/><text y="1.67" class="f">bardelorean@bardelorean:~/Documents/projects/project_1$</text><text x="56.112" y="1.67" class="f">sudo</text><text x="61.122" y="1.67" class="f">npm</text><text x="65.13" y="1.67" class="f">install</text><text x="73.146" y="1.67" class="f">-g</text><text x="76.152" y="1.67" class="f">brain_games_ar</text></svg><svg x="5436"><use xlink:href="#a"/><use xlink:href="#b" x="90.996"/><text y="1.67" class="f">bardelorean@bardelorean:~/Documents/projects/project_1$</text><text x="56.112" y="1.67" class="f">sudo</text><text x="61.122" y="1.67" class="f">npm</text><text x="65.13" y="1.67" class="f">install</text><text x="73.146" y="1.67" class="f">-g</text><text x="76.152" y="1.67" class="f">brain_games_arb</text></svg><svg x="5587"><use xlink:href="#a"/><use xlink:href="#b" x="91.996"/><text y="1.67" class="f">bardelorean@bardelorean:~/Documents/projects/project_1$</text><text x="56.112" y="1.67" class="f">sudo</text><text x="61.122" y="1.67" class="f">npm</text><text x="65.13" y="1.67" class="f">install</text><text x="73.146" y="1.67" class="f">-g</text><text x="76.152" y="1.67" class="f">brain_games_arby</text></svg><svg x="5738"><use xlink:href="#a"/><use xlink:href="#b" x="92.996"/><text y="1.67" class="f">bardelorean@bardelorean:~/Documents/projects/project_1$</text><text x="56.112" y="1.67" class="f">sudo</text><text x="61.122" y="1.67" class="f">npm</text><text x="65.13" y="1.67" class="f">install</text><text x="73.146" y="1.67" class="f">-g</text><text x="76.152" y="1.67" class="f">brain_games_arbym</text></svg><svg x="5889"><use xlink:href="#a"/><use xlink:href="#b" x="93.996"/><text y="1.67" class="f">bardelorean@bardelorean:~/Documents/projects/project_1$</text><text x="56.112" y="1.67" class="f">sudo</text><text x="61.122" y="1.67" class="f">npm</text><text x="65.13" y="1.67" class="f">install</text><text x="73.146" y="1.67" class="f">-g</text><text x="76.152" y="1.67" class="f">brain_games_arbyma</text></svg><svg x="6040"><use xlink:href="#a"/><use xlink:href="#b" x="94.996"/><use xlink:href="#6"/></svg><svg x="6191"><use xlink:href="#a"/><use xlink:href="#b" x="-.004" y="2.146"/><use xlink:href="#6"/></svg><svg x="6342"><use xlink:href="#a"/><use xlink:href="#b" x="30.996" y="2.146"/><use xlink:href="#6"/><use xlink:href="#7" y="2.171"/></svg><svg x="6493"><use xlink:href="#a"/><use xlink:href="#b" x="-.004" y="4.317"/><use xlink:href="#6"/><use xlink:href="#7" y="2.171"/></svg><svg x="6644"><use xlink:href="#a"/><use xlink:href="#6"/><use xlink:href="#7" y="2.171"/></svg><svg x="6795"><use xlink:href="#a"/><use xlink:href="#6"/><use xlink:href="#7" y="2.171"/><use xlink:href="#8" y="4.342"/></svg><svg x="6946"><use xlink:href="#a"/><use xlink:href="#6"/><use xlink:href="#7" y="2.171"/><use xlink:href="#8" y="4.342"/></svg><svg x="7097"><use xlink:href="#a"/><use xlink:href="#6"/><use xlink:href="#7" y="2.171"/><text y="6.012" class="f">[</text><text x="1.002" y="6.012" class="g">..................</text><text x="19.038" y="6.012" class="f">]</text><text x="21.042" y="6.012" class="f">/</text><text x="23.046" y="6.012" class="f">fetchMetadata:</text><path class="f" d="M38.076 4.342h4v2.171h-4z"/><text x="38.076" y="6.012" class="a">sill</text><text x="43.086" y="6.012" class="i">removeObsoleteDep</text><text x="61.122" y="6.012" class="f">removing</text><text x="70.14" y="6.012" class="f">readline-sync@1.4.9</text><text x="90.18" y="6.012" class="f">from</text><text x="95.19" y="6.012" class="f">the</text><text x="99.198" y="6.012" class="f">tree</text><text x="104.208" y="6.012" class="f">as</text><text x="107.214" y="6.012" class="f">its</text><text x="111.222" y="6.012" class="f">been</text><text x="116.232" y="6.012" class="f">replaced</text><text x="125.25" y="6.012" class="f">by</text><text x="128.256" y="6.012" class="f">a</text><text x="130.26" y="6.012" class="f">newer</text><text x="136.272" y="6.012" class="f">version</text><text x="144.288" y="6.012" class="f">or</text><text x="147.294" y="6.012" class="f">is</text></svg><svg x="7248"><use xlink:href="#a"/><use xlink:href="#6"/><use xlink:href="#7" y="2.171"/><text y="6.012" class="f">[</text><path class="f" d="M1.002 4.342h7v2.171h-7z"/><text x="1.002" y="6.012" class="a"></text><text x="8.016" y="6.012" class="g">...........</text><text x="19.038" y="6.012" class="f">]</text><text x="21.042" y="6.012" class="f">-</text><text x="23.046" y="6.012" class="f">extract:brain_games_arbyman:</text>0<text x="52.104" y="6.012" class="h">verb</text><text x="57.114" y="6.012" class="i">lock</text><text x="62.124" y="6.012" class="f">using</text><text x="68.136" y="6.012" class="f">/home/bardelorean/.npm/_locks/staging-3a08f0df5026584d.lock</text><text x="128.256" y="6.012" class="f">for</text><text x="132.264" y="6.012" class="f">/usr/local/lib/nod</text></svg><svg x="7399"><use xlink:href="#a"/><use xlink:href="#6"/><use xlink:href="#7" y="2.171"/><text y="6.012" class="f">[</text><path class="f" d="M1.002 4.342h12v2.171h-12z"/><text x="1.002" y="6.012" class="a"></text><text x="13.026" y="6.012" class="g">......</text><text x="19.038" y="6.012" class="f">]</text><text x="21.042" y="6.012" class="f">\</text><text x="23.046" y="6.012" class="f">build:brain_games_arbyman:</text><path class="f" d="M50.1 4.342h4v2.171h-4z"/><text x="50.1" y="6.012" class="a">sill</text><text x="55.11" y="6.012" class="i">doSerial</text><text x="64.128" y="6.012" class="f">build</text><text x="70.14" y="6.012" class="f">10</text></svg><svg x="7550"><use xlink:href="#a"/><use xlink:href="#b" x="-.004" y="4.317"/><use xlink:href="#6"/><use xlink:href="#7" y="2.171"/></svg><svg x="7701"><use xlink:href="#a"/><use xlink:href="#b" x="-.004" y="6.488"/><use xlink:href="#6"/><use xlink:href="#7" y="2.171"/><use xlink:href="#9" y="4.342"/></svg><svg x="7852"><use xlink:href="#a"/><use xlink:href="#b" x="-.004" y="8.659"/><use xlink:href="#6"/><use xlink:href="#7" y="2.171"/><use xlink:href="#9" y="4.342"/><use xlink:href="#10" y="6.513"/></svg><svg x="8003"><use xlink:href="#a"/><use xlink:href="#b" x="-.004" y="13.001"/><use xlink:href="#6"/><use xlink:href="#7" y="2.171"/><use xlink:href="#9" y="4.342"/><use xlink:href="#10" y="6.513"/><use xlink:href="#11" y="8.684"/><use xlink:href="#12" y="10.855"/></svg><svg x="8154"><use xlink:href="#a"/><use xlink:href="#b" x="55.996" y="13.001"/><use xlink:href="#6"/><use xlink:href="#7" y="2.171"/><use xlink:href="#9" y="4.342"/><use xlink:href="#10" y="6.513"/><use xlink:href="#11" y="8.684"/><use xlink:href="#12" y="10.855"/><use xlink:href="#1" y="13.026"/></svg><svg x="8305"><use xlink:href="#a"/><use xlink:href="#b" x="56.996" y="13.001"/><use xlink:href="#6"/><use xlink:href="#7" y="2.171"/><use xlink:href="#9" y="4.342"/><use xlink:href="#10" y="6.513"/><use xlink:href="#11" y="8.684"/><use xlink:href="#12" y="10.855"/><text y="14.696" class="f">bardelorean@bardelorean:~/Documents/projects/project_1$</text><text x="56.112" y="14.696" class="f">b</text></svg><svg x="8456"><use xlink:href="#a"/><use xlink:href="#b" x="57.996" y="13.001"/><use xlink:href="#6"/><use xlink:href="#7" y="2.171"/><use xlink:href="#9" y="4.342"/><use xlink:href="#10" y="6.513"/><use xlink:href="#11" y="8.684"/><use xlink:href="#12" y="10.855"/><text y="14.696" class="f">bardelorean@bardelorean:~/Documents/projects/project_1$</text><text x="56.112" y="14.696" class="f">br</text></svg><svg x="8607"><use xlink:href="#a"/><use xlink:href="#b" x="58.996" y="13.001"/><use xlink:href="#6"/><use xlink:href="#7" y="2.171"/><use xlink:href="#9" y="4.342"/><use xlink:href="#10" y="6.513"/><use xlink:href="#11" y="8.684"/><use xlink:href="#12" y="10.855"/><text y="14.696" class="f">bardelorean@bardelorean:~/Documents/projects/project_1$</text><text x="56.112" y="14.696" class="f">bra</text></svg><svg x="8758"><use xlink:href="#a"/><use xlink:href="#b" x="59.996" y="13.001"/><use xlink:href="#6"/><use xlink:href="#7" y="2.171"/><use xlink:href="#9" y="4.342"/><use xlink:href="#10" y="6.513"/><use xlink:href="#11" y="8.684"/><use xlink:href="#12" y="10.855"/><text y="14.696" class="f">bardelorean@bardelorean:~/Documents/projects/project_1$</text><text x="56.112" y="14.696" class="f">brai</text></svg><svg x="8909"><use xlink:href="#a"/><use xlink:href="#b" x="60.996" y="13.001"/><use xlink:href="#6"/><use xlink:href="#7" y="2.171"/><use xlink:href="#9" y="4.342"/><use xlink:href="#10" y="6.513"/><use xlink:href="#11" y="8.684"/><use xlink:href="#12" y="10.855"/><text y="14.696" class="f">bardelorean@bardelorean:~/Documents/projects/project_1$</text><text x="56.112" y="14.696" class="f">brain</text></svg><svg x="9060"><use xlink:href="#a"/><use xlink:href="#b" x="61.996" y="13.001"/><use xlink:href="#6"/><use xlink:href="#7" y="2.171"/><use xlink:href="#9" y="4.342"/><use xlink:href="#10" y="6.513"/><use xlink:href="#11" y="8.684"/><use xlink:href="#12" y="10.855"/><text y="14.696" class="f">bardelorean@bardelorean:~/Documents/projects/project_1$</text><text x="56.112" y="14.696" class="f">brain-</text></svg><svg x="9211"><use xlink:href="#a"/><use xlink:href="#b" x="62.996" y="13.001"/><use xlink:href="#6"/><use xlink:href="#7" y="2.171"/><use xlink:href="#9" y="4.342"/><use xlink:href="#10" y="6.513"/><use xlink:href="#11" y="8.684"/><use xlink:href="#12" y="10.855"/><text y="14.696" class="f">bardelorean@bardelorean:~/Documents/projects/project_1$</text><text x="56.112" y="14.696" class="f">brain-e</text></svg><svg x="9362"><use xlink:href="#a"/><use xlink:href="#b" x="63.996" y="13.001"/><use xlink:href="#6"/><use xlink:href="#7" y="2.171"/><use xlink:href="#9" y="4.342"/><use xlink:href="#10" y="6.513"/><use xlink:href="#11" y="8.684"/><use xlink:href="#12" y="10.855"/><text y="14.696" class="f">bardelorean@bardelorean:~/Documents/projects/project_1$</text><text x="56.112" y="14.696" class="f">brain-ev</text></svg><svg x="9513"><use xlink:href="#a"/><use xlink:href="#b" x="64.996" y="13.001"/><use xlink:href="#6"/><use xlink:href="#7" y="2.171"/><use xlink:href="#9" y="4.342"/><use xlink:href="#10" y="6.513"/><use xlink:href="#11" y="8.684"/><use xlink:href="#12" y="10.855"/><text y="14.696" class="f">bardelorean@bardelorean:~/Documents/projects/project_1$</text><text x="56.112" y="14.696" class="f">brain-eve</text></svg><svg x="9664"><use xlink:href="#a"/><use xlink:href="#b" x="65.996" y="13.001"/><use xlink:href="#6"/><use xlink:href="#7" y="2.171"/><use xlink:href="#9" y="4.342"/><use xlink:href="#10" y="6.513"/><use xlink:href="#11" y="8.684"/><use xlink:href="#12" y="10.855"/><use xlink:href="#13" y="13.026"/></svg><svg x="9815"><use xlink:href="#a"/><use xlink:href="#b" x="-.004" y="15.172"/><use xlink:href="#6"/><use xlink:href="#7" y="2.171"/><use xlink:href="#9" y="4.342"/><use xlink:href="#10" y="6.513"/><use xlink:href="#11" y="8.684"/><use xlink:href="#12" y="10.855"/><use xlink:href="#13" y="13.026"/></svg><svg x="9966"><use xlink:href="#a"/><use xlink:href="#b" x="-.004" y="17.343"/><use xlink:href="#6"/><use xlink:href="#7" y="2.171"/><use xlink:href="#9" y="4.342"/><use xlink:href="#10" y="6.513"/><use xlink:href="#11" y="8.684"/><use xlink:href="#12" y="10.855"/><use xlink:href="#13" y="13.026"/><use xlink:href="#14" y="15.197"/></svg><svg x="10117"><use xlink:href="#a"/><use xlink:href="#b" x="-.004" y="21.685"/><use xlink:href="#6"/><use xlink:href="#7" y="2.171"/><use xlink:href="#9" y="4.342"/><use xlink:href="#10" y="6.513"/><use xlink:href="#11" y="8.684"/><use xlink:href="#12" y="10.855"/><use xlink:href="#13" y="13.026"/><use xlink:href="#14" y="15.197"/><use xlink:href="#15" y="17.368"/></svg><svg x="10268"><use xlink:href="#a"/><use xlink:href="#b" x="21.996" y="21.685"/><use xlink:href="#6"/><use xlink:href="#7" y="2.171"/><use xlink:href="#9" y="4.342"/><use xlink:href="#10" y="6.513"/><use xlink:href="#11" y="8.684"/><use xlink:href="#12" y="10.855"/><use xlink:href="#13" y="13.026"/><use xlink:href="#14" y="15.197"/><use xlink:href="#15" y="17.368"/><text y="23.38" class="f">May</text><text x="4.008" y="23.38" class="f">I</text><text x="6.012" y="23.38" class="f">have</text><text x="11.022" y="23.38" class="f">your</text><text x="16.032" y="23.38" class="f">name?</text></svg><svg x="10419"><use xlink:href="#a"/><use xlink:href="#b" x="22.996" y="21.685"/><use xlink:href="#6"/><use xlink:href="#7" y="2.171"/><use xlink:href="#9" y="4.342"/><use xlink:href="#10" y="6.513"/><use xlink:href="#11" y="8.684"/><use xlink:href="#12" y="10.855"/><use xlink:href="#13" y="13.026"/><use xlink:href="#14" y="15.197"/><use xlink:href="#15" y="17.368"/><text y="23.38" class="f">May</text><text x="4.008" y="23.38" class="f">I</text><text x="6.012" y="23.38" class="f">have</text><text x="11.022" y="23.38" class="f">your</text><text x="16.032" y="23.38" class="f">name?</text><text x="22.044" y="23.38" class="f">S</text></svg><svg x="10570"><use xlink:href="#a"/><use xlink:href="#b" x="23.996" y="21.685"/><use xlink:href="#6"/><use xlink:href="#7" y="2.171"/><use xlink:href="#9" y="4.342"/><use xlink:href="#10" y="6.513"/><use xlink:href="#11" y="8.684"/><use xlink:href="#12" y="10.855"/><use xlink:href="#13" y="13.026"/><use xlink:href="#14" y="15.197"/><use xlink:href="#15" y="17.368"/><text y="23.38" class="f">May</text><text x="4.008" y="23.38" class="f">I</text><text x="6.012" y="23.38" class="f">have</text><text x="11.022" y="23.38" class="f">your</text><text x="16.032" y="23.38" class="f">name?</text><text x="22.044" y="23.38" class="f">Se</text></svg><svg x="10721"><use xlink:href="#a"/><use xlink:href="#b" x="24.996" y="21.685"/><use xlink:href="#6"/><use xlink:href="#7" y="2.171"/><use xlink:href="#9" y="4.342"/><use xlink:href="#10" y="6.513"/><use xlink:href="#11" y="8.684"/><use xlink:href="#12" y="10.855"/><use xlink:href="#13" y="13.026"/><use xlink:href="#14" y="15.197"/><use xlink:href="#15" y="17.368"/><text y="23.38" class="f">May</text><text x="4.008" y="23.38" class="f">I</text><text x="6.012" y="23.38" class="f">have</text><text x="11.022" y="23.38" class="f">your</text><text x="16.032" y="23.38" class="f">name?</text><text x="22.044" y="23.38" class="f">Ser</text></svg><svg x="10872"><use xlink:href="#a"/><use xlink:href="#b" x="25.996" y="21.685"/><use xlink:href="#6"/><use xlink:href="#7" y="2.171"/><use xlink:href="#9" y="4.342"/><use xlink:href="#10" y="6.513"/><use xlink:href="#11" y="8.684"/><use xlink:href="#12" y="10.855"/><use xlink:href="#13" y="13.026"/><use xlink:href="#14" y="15.197"/><use xlink:href="#15" y="17.368"/><text y="23.38" class="f">May</text><text x="4.008" y="23.38" class="f">I</text><text x="6.012" y="23.38" class="f">have</text><text x="11.022" y="23.38" class="f">your</text><text x="16.032" y="23.38" class="f">name?</text><text x="22.044" y="23.38" class="f">Serg</text></svg><svg x="11023"><use xlink:href="#a"/><use xlink:href="#b" x="26.996" y="21.685"/><use xlink:href="#6"/><use xlink:href="#7" y="2.171"/><use xlink:href="#9" y="4.342"/><use xlink:href="#10" y="6.513"/><use xlink:href="#11" y="8.684"/><use xlink:href="#12" y="10.855"/><use xlink:href="#13" y="13.026"/><use xlink:href="#14" y="15.197"/><use xlink:href="#15" y="17.368"/><text y="23.38" class="f">May</text><text x="4.008" y="23.38" class="f">I</text><text x="6.012" y="23.38" class="f">have</text><text x="11.022" y="23.38" class="f">your</text><text x="16.032" y="23.38" class="f">name?</text><text x="22.044" y="23.38" class="f">Serge</text></svg><svg x="11174"><use xlink:href="#a"/><use xlink:href="#b" x="27.996" y="21.685"/><use xlink:href="#6"/><use xlink:href="#7" y="2.171"/><use xlink:href="#9" y="4.342"/><use xlink:href="#10" y="6.513"/><use xlink:href="#11" y="8.684"/><use xlink:href="#12" y="10.855"/><use xlink:href="#13" y="13.026"/><use xlink:href="#14" y="15.197"/><use xlink:href="#15" y="17.368"/><use xlink:href="#16" y="21.71"/></svg><svg x="11325"><use xlink:href="#a"/><use xlink:href="#b" x="-.004" y="23.856"/><use xlink:href="#6"/><use xlink:href="#7" y="2.171"/><use xlink:href="#9" y="4.342"/><use xlink:href="#10" y="6.513"/><use xlink:href="#11" y="8.684"/><use xlink:href="#12" y="10.855"/><use xlink:href="#13" y="13.026"/><use xlink:href="#14" y="15.197"/><use xlink:href="#15" y="17.368"/><use xlink:href="#16" y="21.71"/></svg><svg x="11476"><use xlink:href="#a"/><use xlink:href="#b" x="-.004" y="28.198"/><use xlink:href="#6"/><use xlink:href="#7" y="2.171"/><use xlink:href="#9" y="4.342"/><use xlink:href="#10" y="6.513"/><use xlink:href="#11" y="8.684"/><use xlink:href="#12" y="10.855"/><use xlink:href="#13" y="13.026"/><use xlink:href="#14" y="15.197"/><use xlink:href="#15" y="17.368"/><use xlink:href="#16" y="21.71"/><use xlink:href="#17" y="23.881"/></svg><svg x="11627"><use xlink:href="#a"/><use xlink:href="#b" x="-.004" y="30.369"/><use xlink:href="#6"/><use xlink:href="#7" y="2.171"/><use xlink:href="#9" y="4.342"/><use xlink:href="#10" y="6.513"/><use xlink:href="#11" y="8.684"/><use xlink:href="#12" y="10.855"/><use xlink:href="#13" y="13.026"/><use xlink:href="#14" y="15.197"/><use xlink:href="#15" y="17.368"/><use xlink:href="#16" y="21.71"/><use xlink:href="#17" y="23.881"/><use xlink:href="#18" y="28.223"/></svg><svg x="11778"><use xlink:href="#a"/><use xlink:href="#b" x="12.996" y="30.369"/><use xlink:href="#6"/><use xlink:href="#7" y="2.171"/><use xlink:href="#9" y="4.342"/><use xlink:href="#10" y="6.513"/><use xlink:href="#11" y="8.684"/><use xlink:href="#12" y="10.855"/><use xlink:href="#13" y="13.026"/><use xlink:href="#14" y="15.197"/><use xlink:href="#15" y="17.368"/><use xlink:href="#16" y="21.71"/><use xlink:href="#17" y="23.881"/><use xlink:href="#18" y="28.223"/><use xlink:href="#19" y="30.394"/></svg><svg x="11929"><use xlink:href="#a"/><use xlink:href="#b" x="13.996" y="30.369"/><use xlink:href="#6"/><use xlink:href="#7" y="2.171"/><use xlink:href="#9" y="4.342"/><use xlink:href="#10" y="6.513"/><use xlink:href="#11" y="8.684"/><use xlink:href="#12" y="10.855"/><use xlink:href="#13" y="13.026"/><use xlink:href="#14" y="15.197"/><use xlink:href="#15" y="17.368"/><use xlink:href="#16" y="21.71"/><use xlink:href="#17" y="23.881"/><use xlink:href="#18" y="28.223"/><use xlink:href="#20" y="30.394"/></svg><svg x="12080"><use xlink:href="#a"/><use xlink:href="#b" x="14.996" y="30.369"/><use xlink:href="#6"/><use xlink:href="#7" y="2.171"/><use xlink:href="#9" y="4.342"/><use xlink:href="#10" y="6.513"/><use xlink:href="#11" y="8.684"/><use xlink:href="#12" y="10.855"/><use xlink:href="#13" y="13.026"/><use xlink:href="#14" y="15.197"/><use xlink:href="#15" y="17.368"/><use xlink:href="#16" y="21.71"/><use xlink:href="#17" y="23.881"/><use xlink:href="#18" y="28.223"/><use xlink:href="#21" y="30.394"/></svg><svg x="12231"><use xlink:href="#a"/><use xlink:href="#b" x="15.996" y="30.369"/><use xlink:href="#6"/><use xlink:href="#7" y="2.171"/><use xlink:href="#9" y="4.342"/><use xlink:href="#10" y="6.513"/><use xlink:href="#11" y="8.684"/><use xlink:href="#12" y="10.855"/><use xlink:href="#13" y="13.026"/><use xlink:href="#14" y="15.197"/><use xlink:href="#15" y="17.368"/><use xlink:href="#16" y="21.71"/><use xlink:href="#17" y="23.881"/><use xlink:href="#18" y="28.223"/><use xlink:href="#22" y="30.394"/></svg><svg x="12382"><use xlink:href="#a"/><use xlink:href="#b" x="-.004" y="32.54"/><use xlink:href="#6"/><use xlink:href="#7" y="2.171"/><use xlink:href="#9" y="4.342"/><use xlink:href="#10" y="6.513"/><use xlink:href="#11" y="8.684"/><use xlink:href="#12" y="10.855"/><use xlink:href="#13" y="13.026"/><use xlink:href="#14" y="15.197"/><use xlink:href="#15" y="17.368"/><use xlink:href="#16" y="21.71"/><use xlink:href="#17" y="23.881"/><use xlink:href="#18" y="28.223"/><use xlink:href="#22" y="30.394"/></svg><svg x="12533"><use xlink:href="#a"/><use xlink:href="#b" x="-.004" y="34.711"/><use xlink:href="#6"/><use xlink:href="#7" y="2.171"/><use xlink:href="#9" y="4.342"/><use xlink:href="#10" y="6.513"/><use xlink:href="#11" y="8.684"/><use xlink:href="#12" y="10.855"/><use xlink:href="#13" y="13.026"/><use xlink:href="#14" y="15.197"/><use xlink:href="#15" y="17.368"/><use xlink:href="#16" y="21.71"/><use xlink:href="#17" y="23.881"/><use xlink:href="#18" y="28.223"/><use xlink:href="#22" y="30.394"/><use xlink:href="#23" y="32.565"/></svg><svg x="12684"><use xlink:href="#a"/><use xlink:href="#b" x="12.996" y="36.882"/><use xlink:href="#6"/><use xlink:href="#7" y="2.171"/><use xlink:href="#9" y="4.342"/><use xlink:href="#10" y="6.513"/><use xlink:href="#11" y="8.684"/><use xlink:href="#12" y="10.855"/><use xlink:href="#13" y="13.026"/><use xlink:href="#14" y="15.197"/><use xlink:href="#15" y="17.368"/><use xlink:href="#16" y="21.71"/><use xlink:href="#17" y="23.881"/><use xlink:href="#18" y="28.223"/><use xlink:href="#22" y="30.394"/><use xlink:href="#23" y="32.565"/><use xlink:href="#24" y="34.736"/><use xlink:href="#19" y="36.907"/></svg><svg x="12835"><use xlink:href="#a"/><use xlink:href="#b" x="13.996" y="36.882"/><use xlink:href="#6"/><use xlink:href="#7" y="2.171"/><use xlink:href="#9" y="4.342"/><use xlink:href="#10" y="6.513"/><use xlink:href="#11" y="8.684"/><use xlink:href="#12" y="10.855"/><use xlink:href="#13" y="13.026"/><use xlink:href="#14" y="15.197"/><use xlink:href="#15" y="17.368"/><use xlink:href="#16" y="21.71"/><use xlink:href="#17" y="23.881"/><use xlink:href="#18" y="28.223"/><use xlink:href="#22" y="30.394"/><use xlink:href="#23" y="32.565"/><use xlink:href="#24" y="34.736"/><text y="38.577" class="f">Your</text><text x="5.01" y="38.577" class="f">answer:</text><text x="13.026" y="38.577" class="f">n</text></svg><svg x="12986"><use xlink:href="#a"/><use xlink:href="#b" x="14.996" y="36.882"/><use xlink:href="#6"/><use xlink:href="#7" y="2.171"/><use xlink:href="#9" y="4.342"/><use xlink:href="#10" y="6.513"/><use xlink:href="#11" y="8.684"/><use xlink:href="#12" y="10.855"/><use xlink:href="#13" y="13.026"/><use xlink:href="#14" y="15.197"/><use xlink:href="#15" y="17.368"/><use xlink:href="#16" y="21.71"/><use xlink:href="#17" y="23.881"/><use xlink:href="#18" y="28.223"/><use xlink:href="#22" y="30.394"/><use xlink:href="#23" y="32.565"/><use xlink:href="#24" y="34.736"/><use xlink:href="#25" y="36.907"/></svg><svg x="13137"><use xlink:href="#a"/><use xlink:href="#b" x="-.004" y="39.053"/><use xlink:href="#6"/><use xlink:href="#7" y="2.171"/><use xlink:href="#9" y="4.342"/><use xlink:href="#10" y="6.513"/><use xlink:href="#11" y="8.684"/><use xlink:href="#12" y="10.855"/><use xlink:href="#13" y="13.026"/><use xlink:href="#14" y="15.197"/><use xlink:href="#15" y="17.368"/><use xlink:href="#16" y="21.71"/><use xlink:href="#17" y="23.881"/><use xlink:href="#18" y="28.223"/><use xlink:href="#22" y="30.394"/><use xlink:href="#23" y="32.565"/><use xlink:href="#24" y="34.736"/><use xlink:href="#25" y="36.907"/></svg><svg x="13288"><use xlink:href="#a"/><use xlink:href="#b" x="-.004" y="41.224"/><use xlink:href="#6"/><use xlink:href="#7" y="2.171"/><use xlink:href="#9" y="4.342"/><use xlink:href="#10" y="6.513"/><use xlink:href="#11" y="8.684"/><use xlink:href="#12" y="10.855"/><use xlink:href="#13" y="13.026"/><use xlink:href="#14" y="15.197"/><use xlink:href="#15" y="17.368"/><use xlink:href="#16" y="21.71"/><use xlink:href="#17" y="23.881"/><use xlink:href="#18" y="28.223"/><use xlink:href="#22" y="30.394"/><use xlink:href="#23" y="32.565"/><use xlink:href="#24" y="34.736"/><use xlink:href="#25" y="36.907"/><use xlink:href="#23" y="39.078"/></svg><svg x="13439"><use xlink:href="#a"/><use xlink:href="#b" x="-.004" y="43.395"/><use xlink:href="#6"/><use xlink:href="#7" y="2.171"/><use xlink:href="#9" y="4.342"/><use xlink:href="#10" y="6.513"/><use xlink:href="#11" y="8.684"/><use xlink:href="#12" y="10.855"/><use xlink:href="#13" y="13.026"/><use xlink:href="#14" y="15.197"/><use xlink:href="#15" y="17.368"/><use xlink:href="#16" y="21.71"/><use xlink:href="#17" y="23.881"/><use xlink:href="#18" y="28.223"/><use xlink:href="#22" y="30.394"/><use xlink:href="#23" y="32.565"/><use xlink:href="#24" y="34.736"/><use xlink:href="#25" y="36.907"/><use xlink:href="#23" y="39.078"/><use xlink:href="#26" y="41.249"/></svg><svg x="13590"><use xlink:href="#a"/><use xlink:href="#b" x="12.996" y="43.395"/><use xlink:href="#6"/><use xlink:href="#7" y="2.171"/><use xlink:href="#9" y="4.342"/><use xlink:href="#10" y="6.513"/><use xlink:href="#11" y="8.684"/><use xlink:href="#12" y="10.855"/><use xlink:href="#13" y="13.026"/><use xlink:href="#14" y="15.197"/><use xlink:href="#15" y="17.368"/><use xlink:href="#16" y="21.71"/><use xlink:href="#17" y="23.881"/><use xlink:href="#18" y="28.223"/><use xlink:href="#22" y="30.394"/><use xlink:href="#23" y="32.565"/><use xlink:href="#24" y="34.736"/><use xlink:href="#25" y="36.907"/><use xlink:href="#23" y="39.078"/><use xlink:href="#26" y="41.249"/><use xlink:href="#19" y="43.42"/></svg><svg x="13741"><use xlink:href="#a"/><use xlink:href="#b" x="13.996" y="43.395"/><use xlink:href="#6"/><use xlink:href="#7" y="2.171"/><use xlink:href="#9" y="4.342"/><use xlink:href="#10" y="6.513"/><use xlink:href="#11" y="8.684"/><use xlink:href="#12" y="10.855"/><use xlink:href="#13" y="13.026"/><use xlink:href="#14" y="15.197"/><use xlink:href="#15" y="17.368"/><use xlink:href="#16" y="21.71"/><use xlink:href="#17" y="23.881"/><use xlink:href="#18" y="28.223"/><use xlink:href="#22" y="30.394"/><use xlink:href="#23" y="32.565"/><use xlink:href="#24" y="34.736"/><use xlink:href="#25" y="36.907"/><use xlink:href="#23" y="39.078"/><use xlink:href="#26" y="41.249"/><use xlink:href="#20" y="43.42"/></svg><svg x="13892"><use xlink:href="#a"/><use xlink:href="#b" x="14.996" y="43.395"/><use xlink:href="#6"/><use xlink:href="#7" y="2.171"/><use xlink:href="#9" y="4.342"/><use xlink:href="#10" y="6.513"/><use xlink:href="#11" y="8.684"/><use xlink:href="#12" y="10.855"/><use xlink:href="#13" y="13.026"/><use xlink:href="#14" y="15.197"/><use xlink:href="#15" y="17.368"/><use xlink:href="#16" y="21.71"/><use xlink:href="#17" y="23.881"/><use xlink:href="#18" y="28.223"/><use xlink:href="#22" y="30.394"/><use xlink:href="#23" y="32.565"/><use xlink:href="#24" y="34.736"/><use xlink:href="#25" y="36.907"/><use xlink:href="#23" y="39.078"/><use xlink:href="#26" y="41.249"/><use xlink:href="#21" y="43.42"/></svg><svg x="14043"><use xlink:href="#a"/><use xlink:href="#b" x="15.996" y="43.395"/><use xlink:href="#6"/><use xlink:href="#7" y="2.171"/><use xlink:href="#9" y="4.342"/><use xlink:href="#10" y="6.513"/><use xlink:href="#11" y="8.684"/><use xlink:href="#12" y="10.855"/><use xlink:href="#13" y="13.026"/><use xlink:href="#14" y="15.197"/><use xlink:href="#15" y="17.368"/><use xlink:href="#16" y="21.71"/><use xlink:href="#17" y="23.881"/><use xlink:href="#18" y="28.223"/><use xlink:href="#22" y="30.394"/><use xlink:href="#23" y="32.565"/><use xlink:href="#24" y="34.736"/><use xlink:href="#25" y="36.907"/><use xlink:href="#23" y="39.078"/><use xlink:href="#26" y="41.249"/><use xlink:href="#22" y="43.42"/></svg><svg x="14194"><use xlink:href="#a"/><use xlink:href="#b" x="-.004" y="45.566"/><use xlink:href="#6"/><use xlink:href="#7" y="2.171"/><use xlink:href="#9" y="4.342"/><use xlink:href="#10" y="6.513"/><use xlink:href="#11" y="8.684"/><use xlink:href="#12" y="10.855"/><use xlink:href="#13" y="13.026"/><use xlink:href="#14" y="15.197"/><use xlink:href="#15" y="17.368"/><use xlink:href="#16" y="21.71"/><use xlink:href="#17" y="23.881"/><use xlink:href="#18" y="28.223"/><use xlink:href="#22" y="30.394"/><use xlink:href="#23" y="32.565"/><use xlink:href="#24" y="34.736"/><use xlink:href="#25" y="36.907"/><use xlink:href="#23" y="39.078"/><use xlink:href="#26" y="41.249"/><use xlink:href="#22" y="43.42"/></svg><svg x="14345"><use xlink:href="#a"/><use xlink:href="#b" x="-.004" y="45.566"/><use xlink:href="#7"/><use xlink:href="#9" y="2.171"/><use xlink:href="#10" y="4.342"/><use xlink:href="#11" y="6.513"/><use xlink:href="#12" y="8.684"/><use xlink:href="#13" y="10.855"/><use xlink:href="#14" y="13.026"/><use xlink:href="#15" y="15.197"/><use xlink:href="#16" y="19.539"/><use xlink:href="#17" y="21.71"/><use xlink:href="#18" y="26.052"/><use xlink:href="#22" y="28.223"/><use xlink:href="#23" y="30.394"/><use xlink:href="#24" y="32.565"/><use xlink:href="#25" y="34.736"/><use xlink:href="#23" y="36.907"/><use xlink:href="#26" y="39.078"/><use xlink:href="#22" y="41.249"/><use xlink:href="#23" y="43.42"/></svg><svg x="14496"><use xlink:href="#a"/><use xlink:href="#b" x="-.004" y="45.566"/><use xlink:href="#9"/><use xlink:href="#10" y="2.171"/><use xlink:href="#11" y="4.342"/><use xlink:href="#12" y="6.513"/><use xlink:href="#13" y="8.684"/><use xlink:href="#14" y="10.855"/><use xlink:href="#15" y="13.026"/><use xlink:href="#16" y="17.368"/><use xlink:href="#17" y="19.539"/><use xlink:href="#18" y="23.881"/><use xlink:href="#22" y="26.052"/><use xlink:href="#23" y="28.223"/><use xlink:href="#24" y="30.394"/><use xlink:href="#25" y="32.565"/><use xlink:href="#23" y="34.736"/><use xlink:href="#26" y="36.907"/><use xlink:href="#22" y="39.078"/><use xlink:href="#23" y="41.249"/><use xlink:href="#27" y="43.42"/></svg><svg x="14647"><use xlink:href="#a"/><use xlink:href="#b" x="55.996" y="45.566"/><use xlink:href="#9"/><use xlink:href="#10" y="2.171"/><use xlink:href="#11" y="4.342"/><use xlink:href="#12" y="6.513"/><use xlink:href="#13" y="8.684"/><use xlink:href="#14" y="10.855"/><use xlink:href="#15" y="13.026"/><use xlink:href="#16" y="17.368"/><use xlink:href="#17" y="19.539"/><use xlink:href="#18" y="23.881"/><use xlink:href="#22" y="26.052"/><use xlink:href="#23" y="28.223"/><use xlink:href="#24" y="30.394"/><use xlink:href="#25" y="32.565"/><use xlink:href="#23" y="34.736"/><use xlink:href="#26" y="36.907"/><use xlink:href="#22" y="39.078"/><use xlink:href="#23" y="41.249"/><use xlink:href="#27" y="43.42"/><use xlink:href="#1" y="45.591"/></svg><svg x="14798"><use xlink:href="#a"/><use xlink:href="#b" x="-.004" y="45.566"/><use xlink:href="#10"/><use xlink:href="#11" y="2.171"/><use xlink:href="#12" y="4.342"/><use xlink:href="#13" y="6.513"/><use xlink:href="#14" y="8.684"/><use xlink:href="#15" y="10.855"/><use xlink:href="#16" y="15.197"/><use xlink:href="#17" y="17.368"/><use xlink:href="#18" y="21.71"/><use xlink:href="#22" y="23.881"/><use xlink:href="#23" y="26.052"/><use xlink:href="#24" y="28.223"/><use xlink:href="#25" y="30.394"/><use xlink:href="#23" y="32.565"/><use xlink:href="#26" y="34.736"/><use xlink:href="#22" y="36.907"/><use xlink:href="#23" y="39.078"/><use xlink:href="#27" y="41.249"/><text y="45.09" class="f">bardelorean@bardelorean:~/Documents/projects/project_1$</text><text x="56.112" y="45.09" class="f">exit</text></svg></svg></g></g></svg></svg>